<svg xmlns="http://www.w3.org/2000/svg" width="430" height="430" style="width:100%;height:100%;transform:translate3d(0,0,0);content-visibility:visible" viewBox="0 0 430 430"><defs><clipPath id="a"><path d="M0 0h430v430H0z"/></clipPath><clipPath id="b"><path d="M0 0h430v430H0z"/></clipPath></defs><g clip-path="url(#a)"><g clip-path="url(#b)" style="display:block"><path fill="#EBE6EF" d="M74.71 119.663c-1 7.75-7.92 13.94-15.4 13.94H-59.31c-7.48 0-14.4-6.19-15.4-13.94l-29.04-224.75c-2-15.44 5.33-28.52 16.35-28.52H87.4c11.02 0 18.35 13.08 16.35 28.52l-29.04 224.75z" class="secondary" style="display:block" transform="translate(215 215)"/><path fill="#4BB3FD" d="M97.02-53.037H-97.02S-82.208 75.834-76.5 111c3.875 23.875 17.5 23.125 17.5 23.125s72.749.58 108.25.125c29.25-.375 25.75-16.375 28.96-38.037 3.541-23.894 18.81-149.25 18.81-149.25z" class="primary" style="display:block" transform="translate(215 215)"/><g opacity=".5" style="mix-blend-mode:multiply;display:block"><path fill="#4BB3FD" d="M29.676 42.584h-42.143c-3.413 0-6.567-2.82-7.028-6.357l-10.181-78.811h16.346s-.94 82.813 43.006 85.168z" class="primary" opacity="1" style="mix-blend-mode:multiply" transform="translate(183.203 255.732) scale(2.17629)"/></g></g></g></svg>